<svg width="37" height="37" viewBox="0 0 37 37" fill="none" xmlns="http://www.w3.org/2000/svg">
<path d="M34.3571 21.0781H21.1429V34.2519C21.1429 34.9507 20.8644 35.6208 20.3688 36.1149C19.8731 36.6091 19.2009 36.8866 18.5 36.8866C17.7991 36.8866 17.1269 36.6091 16.6312 36.1149C16.1356 35.6208 15.8571 34.9507 15.8571 34.2519V21.0781H2.64286C1.94193 21.0781 1.26971 20.8005 0.774075 20.3064C0.278444 19.8123 0 19.1421 0 18.4433C0 17.7445 0.278444 17.0744 0.774075 16.5803C1.26971 16.0862 1.94193 15.8086 2.64286 15.8086H15.8571V2.63476C15.8571 1.93598 16.1356 1.26582 16.6312 0.771703C17.1269 0.277589 17.7991 0 18.5 0C19.2009 0 19.8731 0.277589 20.3688 0.771703C20.8644 1.26582 21.1429 1.93598 21.1429 2.63476V15.8086H34.3571C35.0581 15.8086 35.7303 16.0862 36.2259 16.5803C36.7216 17.0744 37 17.7445 37 18.4433C37 19.1421 36.7216 19.8123 36.2259 20.3064C35.7303 20.8005 35.0581 21.0781 34.3571 21.0781Z" fill="white"/>
</svg>
