<svg width="88" height="88" viewBox="0 0 88 88" fill="none" xmlns="http://www.w3.org/2000/svg">
<path d="M44 7.33301C24.123 7.33301 7.33337 24.1263 7.33337 43.9997C7.33337 63.873 24.123 80.6663 44 80.6663C63.877 80.6663 80.6667 63.873 80.6667 43.9997C80.6667 24.1263 63.877 7.33301 44 7.33301ZM44 54.9997C47.6374 54.9997 50.7834 54.028 52.4077 52.4037L57.5924 57.592C53.4637 61.717 47.3037 62.333 44 62.333C33.891 62.333 25.6667 54.1087 25.6667 43.9997C25.6667 33.8907 33.891 25.6663 44 25.6663C47.3037 25.6663 53.4674 26.2823 57.5924 30.4073L52.4077 35.592C50.787 33.9677 47.641 32.9997 44 32.9997C38.038 32.9997 33 38.0377 33 43.9997C33 49.9617 38.038 54.9997 44 54.9997Z" fill="#4ADE80"/>
</svg>
