<svg width="96" height="96" viewBox="0 0 96 96" fill="none" xmlns="http://www.w3.org/2000/svg">
<path d="M48 3C59.8943 3.00143 71.3043 7.71188 79.7356 16.1016C88.1669 24.4913 92.9338 35.8778 92.994 47.772L93.006 48V54.984C93.0082 58.3463 91.9289 61.6202 89.9276 64.322C87.9263 67.0239 85.1092 69.0105 81.8922 69.9884C78.6753 70.9663 75.2291 70.8838 72.0627 69.7528C68.8963 68.6219 66.1776 66.5026 64.308 63.708C62.1997 65.9073 59.6678 67.6567 56.865 68.8508C54.0622 70.045 51.0466 70.659 48 70.656C43.5191 70.656 39.1388 69.3272 35.413 66.8378C31.6873 64.3483 28.7834 60.8099 27.0686 56.6701C25.3538 52.5302 24.9052 47.9749 25.7794 43.58C26.6535 39.1852 28.8113 35.1483 31.9798 31.9798C35.1483 28.8113 39.1852 26.6535 43.5801 25.7793C47.9749 24.9051 52.5303 25.3538 56.6701 27.0686C60.8099 28.7834 64.3483 31.6872 66.8378 35.413C69.3273 39.1388 70.656 43.5191 70.656 48V54.984C70.656 56.7543 71.3593 58.4521 72.6111 59.7039C73.8629 60.9557 75.5607 61.659 77.331 61.659C79.1013 61.659 80.7992 60.9557 82.051 59.7039C83.3028 58.4521 84.006 56.7543 84.006 54.984L84 48C83.9983 40.1662 81.4414 32.5468 76.7172 26.2978C71.993 20.0488 65.3593 15.5113 57.8228 13.3738C50.2862 11.2363 42.2581 11.6155 34.9566 14.4538C27.6551 17.2921 21.4787 22.4347 17.3645 29.1011C13.2503 35.7676 11.4229 43.5941 12.1596 51.3932C12.8962 59.1923 16.1568 66.5382 21.4465 72.3164C26.7361 78.0946 33.7662 81.9897 41.4701 83.4106C49.1739 84.8316 57.131 83.7008 64.134 80.19C65.201 79.6545 66.437 79.5648 67.5701 79.9407C68.7032 80.3165 69.6406 81.127 70.176 82.194C70.7115 83.261 70.8012 84.4969 70.4254 85.63C70.0495 86.7631 69.239 87.7005 68.172 88.236C62.1018 91.2761 55.4224 92.9033 48.6341 92.9958C41.8458 93.0883 35.1246 91.6437 28.9738 88.7701C22.823 85.8966 17.4021 81.6685 13.1171 76.4028C8.83209 71.137 5.79409 64.9699 4.2306 58.3635C2.66712 51.757 2.61868 44.8824 4.08892 38.2546C5.55916 31.6268 8.50997 25.4175 12.7203 20.0919C16.9307 14.7662 22.2915 10.4623 28.4012 7.50231C34.5109 4.54236 41.2111 3.00316 48 3ZM48 34.35C46.2067 34.35 44.4309 34.7032 42.7741 35.3895C41.1173 36.0758 39.6119 37.0817 38.3438 38.3498C37.0757 39.6178 36.0698 41.1233 35.3835 42.7801C34.6972 44.4369 34.344 46.2127 34.344 48.006C34.344 49.7993 34.6972 51.5751 35.3835 53.2319C36.0698 54.8887 37.0757 56.3942 38.3438 57.6623C39.6119 58.9303 41.1173 59.9362 42.7741 60.6225C44.4309 61.3088 46.2067 61.662 48 61.662C51.6218 61.662 55.0953 60.2232 57.6563 57.6623C60.2173 55.1013 61.656 51.6278 61.656 48.006C61.656 44.3842 60.2173 40.9107 57.6563 38.3498C55.0953 35.7888 51.6218 34.35 48 34.35Z" fill="#4ADE80"/>
</svg>
