<svg width="43" height="43" viewBox="0 0 43 43" fill="none" xmlns="http://www.w3.org/2000/svg">
<path fill-rule="evenodd" clip-rule="evenodd" d="M18.825 2.70206C18.9848 2.51818 19.1916 2.3812 19.4233 2.30577C19.6549 2.23035 19.9027 2.21931 20.1401 2.27385C26.6045 3.75914 29.8742 10.8434 29.1038 17.1823C28.8064 19.6476 28.0682 21.5791 26.9807 23.1163L26.961 23.145C27.207 23.0231 27.4364 22.8929 27.649 22.7544C28.7097 22.0646 29.4872 21.1562 30.5013 19.9737L30.8794 19.533C31.0235 19.3655 31.2067 19.2361 31.4127 19.1563C31.6188 19.0765 31.8414 19.0487 32.0607 19.0755C32.2801 19.1022 32.4894 19.1827 32.6703 19.3097C32.8511 19.4366 32.9978 19.6063 33.0975 19.8035C34.2277 22.041 34.6864 24.5576 34.4183 27.05C34.1501 29.5423 33.1666 31.9038 31.5862 33.8496C30.0059 35.7954 27.8963 37.2424 25.5119 38.016C23.1275 38.7896 20.5703 38.8567 18.1486 38.2094C15.7269 37.562 13.5443 36.2277 11.864 34.3676C10.1837 32.5074 9.07753 30.2008 8.67892 27.726C8.28032 25.2511 8.60631 22.7138 9.61758 20.4202C10.6288 18.1265 12.2822 16.1744 14.3781 14.7994L14.4982 14.6776C14.562 14.6165 14.6303 14.5602 14.7024 14.5091C16.2522 13.4646 17.3666 12.61 18.1173 11.6066C18.825 10.6589 19.2604 9.50143 19.2604 7.74739C19.2635 6.48885 19.0338 5.24059 18.5832 4.06552C18.4963 3.83794 18.4729 3.59102 18.5155 3.35118C18.5581 3.11133 18.6651 2.88579 18.825 2.70206ZM21.8064 5.82673C21.9007 6.455 21.9479 7.09523 21.9479 7.74739C21.9479 10.0192 21.3602 11.7554 20.2691 13.2156C19.2461 14.588 17.8271 15.6397 16.3131 16.6645L16.1823 16.7953C16.1111 16.863 16.0344 16.9247 15.953 16.9799C14.3488 18.0053 13.0601 19.4552 12.23 21.1686C11.3999 22.882 11.0609 24.792 11.2506 26.6865C11.4402 28.5809 12.1512 30.3858 13.3045 31.9006C14.4578 33.4155 16.0083 34.5812 17.784 35.2682C19.5596 35.9552 21.4909 36.1367 23.3635 35.7926C25.2361 35.4484 26.9766 34.5921 28.392 33.3187C29.8074 32.0452 30.8422 30.4044 31.3815 28.5785C31.9208 26.7526 31.9436 24.8129 31.4473 22.9748C30.7665 23.7111 30.014 24.4242 29.1128 25.0101C27.4573 26.0833 25.3861 26.6961 22.3958 26.6961C22.0976 26.6962 21.8079 26.5971 21.5722 26.4144C21.3365 26.2318 21.1683 25.9759 21.094 25.6871C21.0197 25.3984 21.0435 25.0931 21.1618 24.8193C21.2801 24.5456 21.486 24.319 21.7472 24.1752C22.9638 23.5051 23.994 22.6863 24.7877 21.5665C25.576 20.4485 26.1834 18.9561 26.436 16.8616C26.9861 12.3269 25.1102 7.85131 21.8064 5.82493" fill="#4ADE80"/>
</svg>
