<svg width="42" height="42" viewBox="0 0 42 42" fill="none" xmlns="http://www.w3.org/2000/svg">
<path fill-rule="evenodd" clip-rule="evenodd" d="M21.0647 38.4965C16.3462 38.4285 11.8424 36.5128 8.52075 33.1607C6.89724 31.523 5.61703 29.5776 4.75519 27.4386C3.89334 25.2996 3.4672 23.0101 3.50175 20.7043C3.61095 16.1012 5.53888 11.7287 8.86375 8.5435C12.2302 5.31816 16.7088 3.51217 21.371 3.5H21.679C25.9577 3.52124 30.0785 5.11871 33.2535 7.987L28.7997 12.04C26.8082 10.2698 24.235 9.29434 21.5705 9.2995C18.4462 9.28803 15.4391 10.488 13.181 12.6473C12.0766 13.7027 11.1919 14.966 10.5777 16.3647C9.96351 17.7634 9.632 19.2697 9.60225 20.797C9.57752 22.324 9.85587 23.8408 10.4212 25.2595C10.9865 26.6782 11.8276 27.9707 12.8957 29.0622C15.08 31.2934 18.0436 32.5917 21.1645 32.6847H21.4147C23.8822 32.8107 26.3147 32.0652 28.2695 30.5847C30.2147 29.1191 31.5647 26.9997 32.0705 24.6172L32.1457 24.4125H21.385V18.445H38.3215C38.4533 19.5265 38.5117 20.6109 38.4965 21.6982C38.3232 31.745 31.4667 38.4982 21.441 38.4982L21.0647 38.4965Z" fill="#4ADE80"/>
</svg>
