<svg width="35" height="35" viewBox="0 0 35 35" fill="none" xmlns="http://www.w3.org/2000/svg">
<path d="M35 2.1875C35 9.57715 29.7637 15.7432 22.8047 17.1855C22.2646 13.2139 20.4805 9.63867 17.8486 6.87012C20.5898 2.73438 25.2861 0 30.625 0H32.8125C34.0225 0 35 0.977539 35 2.1875ZM0 6.5625C0 5.35254 0.977539 4.375 2.1875 4.375H4.375C12.8311 4.375 19.6875 11.2314 19.6875 19.6875V32.8125C19.6875 34.0225 18.71 35 17.5 35C16.29 35 15.3125 34.0225 15.3125 32.8125V21.875C6.85645 21.875 0 15.0186 0 6.5625Z" fill="#4ADE80"/>
</svg>
