<svg width="96" height="96" viewBox="0 0 96 96" fill="none" xmlns="http://www.w3.org/2000/svg">
<path d="M26 32.44C22.44 32.44 19.56 29.56 19.56 26C19.56 24.292 20.2385 22.654 21.4462 21.4462C22.654 20.2385 24.292 19.56 26 19.56C29.56 19.56 32.44 22.44 32.44 26C32.44 27.708 31.7615 29.346 30.5538 30.5538C29.346 31.7615 27.708 32.44 26 32.44ZM26 8C16 8 8 16 8 26C8 39.48 26 59.44 26 59.44C26 59.44 44 39.48 44 26C44 16 36 8 26 8ZM70 32.44C68.292 32.44 66.654 31.7615 65.4462 30.5538C64.2385 29.346 63.56 27.708 63.56 26C63.56 25.1543 63.7266 24.3169 64.0502 23.5355C64.3739 22.7542 64.8482 22.0442 65.4462 21.4462C66.0442 20.8482 66.7542 20.3739 67.5355 20.0502C68.3169 19.7266 69.1543 19.56 70 19.56C70.8457 19.56 71.6831 19.7266 72.4645 20.0502C73.2458 20.3739 73.9558 20.8482 74.5538 21.4462C75.1518 22.0442 75.6261 22.7542 75.9498 23.5355C76.2734 24.3169 76.44 25.1543 76.44 26C76.44 27.708 75.7615 29.346 74.5538 30.5538C73.346 31.7615 71.708 32.44 70 32.44ZM70 8C60 8 52 16 52 26C52 39.48 70 59.44 70 59.44C70 59.44 88 39.48 88 26C88 16 80 8 70 8ZM70 64C64.92 64 60.4 67.2 58.72 72H37.28C36.2201 69.0063 34.0167 66.5548 31.1525 65.1827C28.2884 63.8106 24.9972 63.6299 22 64.68C20.5103 65.202 19.1381 66.0124 17.9619 67.065C16.7856 68.1177 15.8284 69.3918 15.1448 70.8146C14.4613 72.2374 14.0649 73.781 13.9783 75.3571C13.8916 76.9332 14.1165 78.5109 14.64 80C15.7143 83.0015 17.9326 85.4561 20.8105 86.8276C23.6884 88.1991 26.992 88.3761 30 87.32C33.4 86.12 36 83.4 37.28 80H58.76C60.96 86.24 67.84 89.52 74 87.32C75.4942 86.8034 76.8716 85.9966 78.053 84.946C79.2344 83.8954 80.1966 82.6217 80.8843 81.1981C81.5719 79.7745 81.9715 78.229 82.06 76.6505C82.1485 75.072 81.9242 73.4916 81.4 72C79.68 67.2 75.12 64 70 64ZM70 82C68.4087 82 66.8826 81.3679 65.7574 80.2426C64.6321 79.1174 64 77.5913 64 76C64 74.4087 64.6321 72.8826 65.7574 71.7574C66.8826 70.6321 68.4087 70 70 70C71.5913 70 73.1174 70.6321 74.2426 71.7574C75.3679 72.8826 76 74.4087 76 76C76 77.5913 75.3679 79.1174 74.2426 80.2426C73.1174 81.3679 71.5913 82 70 82Z" fill="#4ADE80"/>
</svg>
