<svg width="41" height="41" viewBox="0 0 41 41" fill="none" xmlns="http://www.w3.org/2000/svg">
<path d="M27.3333 29.0419V32.4586H3.41663V29.0419C3.41663 29.0419 3.41663 22.2086 15.375 22.2086C27.3333 22.2086 27.3333 29.0419 27.3333 29.0419ZM21.3541 12.8127C21.3541 11.6302 21.0035 10.4741 20.3465 9.49088C19.6895 8.50761 18.7556 7.74125 17.6631 7.2887C16.5705 6.83615 15.3683 6.71774 14.2085 6.94845C13.0486 7.17915 11.9833 7.74862 11.1471 8.58482C10.3108 9.42102 9.74139 10.4864 9.51068 11.6462C9.27997 12.8061 9.39838 14.0083 9.85093 15.1009C10.3035 16.1934 11.0698 17.1272 12.0531 17.7842C13.0364 18.4412 14.1924 18.7919 15.375 18.7919C16.9607 18.7919 18.4816 18.1619 19.6029 17.0406C20.7242 15.9193 21.3541 14.3985 21.3541 12.8127ZM27.2308 22.2086C28.281 23.0213 29.1403 24.0543 29.7483 25.2349C30.3563 26.4155 30.6982 27.715 30.75 29.0419V32.4586H37.5833V29.0419C37.5833 29.0419 37.5833 22.8406 27.2308 22.2086ZM25.625 6.83356C24.4493 6.82809 23.2996 7.17955 22.3279 7.84148C23.3656 9.2914 23.9236 11.0297 23.9236 12.8127C23.9236 14.5957 23.3656 16.3341 22.3279 17.784C23.2996 18.4459 24.4493 18.7974 25.625 18.7919C27.2107 18.7919 28.7316 18.1619 29.8529 17.0406C30.9742 15.9193 31.6041 14.3985 31.6041 12.8127C31.6041 11.227 30.9742 9.70613 29.8529 8.58482C28.7316 7.46351 27.2107 6.83356 25.625 6.83356Z" fill="#4ADE80"/>
</svg>
