<svg width="96" height="96" viewBox="0 0 96 96" fill="none" xmlns="http://www.w3.org/2000/svg">
<g clip-path="url(#clip0_10483_367)">
<path d="M18 0C21.3188 0 24 2.68125 24 6V12H90C93.3187 12 96 14.6812 96 18C96 21.3188 93.3187 24 90 24H24V90C24 93.3187 21.3188 96 18 96C14.6812 96 12 93.3187 12 90V24H6C2.68125 24 0 21.3188 0 18C0 14.6812 2.68125 12 6 12H12V6C12 2.68125 14.6812 0 18 0ZM39 33H84C87.3187 33 90 35.6813 90 39V66C90 69.3187 87.3187 72 84 72H39C35.6813 72 33 69.3187 33 66V39C33 35.6813 35.6813 33 39 33Z" fill="#4ADE80"/>
</g>
<defs>
<clipPath id="clip0_10483_367">
<rect width="96" height="96" fill="white"/>
</clipPath>
</defs>
</svg>
