<svg width="47" height="47" viewBox="0 0 47 47" fill="none" xmlns="http://www.w3.org/2000/svg">
<path d="M20.5625 5.87512C19.1023 5.86757 17.6633 6.22461 16.376 6.91387C15.0886 7.60314 13.9937 8.60282 13.1904 9.82229C12.3872 11.0418 11.901 12.4424 11.776 13.8973C11.651 15.3522 11.8911 16.8153 12.4746 18.1539C10.7709 19.8185 9.79169 22.0901 9.79169 24.4793C9.79169 29.3751 13.7084 33.2918 18.6042 33.2918C19.5834 33.2918 20.5625 33.0764 21.5417 32.7434V41.1251H25.4584V30.883C26.4375 31.1572 27.4167 31.3335 28.3959 31.3335C29.8103 31.3335 31.2109 31.0549 32.5177 30.5136C33.8245 29.9723 35.0118 29.1789 36.012 28.1787C37.0121 27.1786 37.8055 25.9912 38.3468 24.6844C38.8881 23.3777 39.1667 21.9771 39.1667 20.5626C39.1667 19.1482 38.8881 17.7476 38.3468 16.4408C37.8055 15.134 37.0121 13.9467 36.012 12.9465C35.0118 11.9463 33.8245 11.1529 32.5177 10.6117C31.2109 10.0704 29.8103 9.79178 28.3959 9.79178H27.8867C26.2613 7.36345 23.5 5.87512 20.5625 5.87512ZM20.5625 9.79178C23.1475 9.79178 25.2821 11.8089 25.4584 14.3939C26.3592 13.9435 27.4167 13.7085 28.3959 13.7085C30.2137 13.7085 31.9571 14.4306 33.2425 15.716C34.5279 17.0014 35.25 18.7448 35.25 20.5626C35.25 22.3805 34.5279 24.1238 33.2425 25.4092C31.9571 26.6947 30.2137 27.4168 28.3959 27.4168C26.5159 27.4168 24.7338 26.653 23.4217 25.2822C23.2356 26.4254 22.6487 27.4651 21.766 28.215C20.8833 28.965 19.7625 29.3762 18.6042 29.3751C17.3057 29.3751 16.0605 28.8593 15.1423 27.9412C14.2242 27.023 13.7084 25.7777 13.7084 24.4793C13.7084 21.7768 15.275 20.641 17.625 19.1722C16.0584 17.1551 15.6667 15.9801 15.6667 14.6876C15.6667 13.3892 16.1825 12.1439 17.1006 11.2257C18.0188 10.3076 19.2641 9.79178 20.5625 9.79178Z" fill="#4ADE80"/>
</svg>
