<svg width="50" height="26" viewBox="0 0 50 26" fill="none" xmlns="http://www.w3.org/2000/svg">
<path d="M0.108011 2.16543C0.478497 7.0463 2.20114 11.7739 5.0612 15.6575C6.12443 17.1064 8.88197 19.8603 10.308 20.8974C13.4124 23.1492 16.5057 24.5115 20.1506 25.2634C22.2756 25.7034 26.4709 25.7545 28.733 25.3935C34.9901 24.3624 40.4676 21.0343 44.4058 15.8563C47.5768 11.6986 49.269 6.98704 49.596 1.3884L49.6816 3.19462e-06L48.8133 0.0112546C48.3424 0.0173571 47.2548 0.137006 46.4026 0.253605C41.9073 0.930108 37.8094 2.77764 34.3285 5.70289C29.2018 10.0066 26.0813 15.8375 25.3268 22.5575L25.1545 24.0677L25.0254 23.1646C24.525 19.6576 23.7887 17.2846 22.2941 14.3032C20.7238 11.1569 18.7051 8.63469 15.864 6.25883C11.9518 2.97701 6.73049 0.933584 1.66422 0.682572L-9.71834e-06 0.598584L0.108011 2.16543Z" fill="#4ADE80"/>
</svg>
