<svg width="65" height="66" viewBox="0 0 65 66" fill="none" xmlns="http://www.w3.org/2000/svg">
<path fill-rule="evenodd" clip-rule="evenodd" d="M32.5 66C36.768 66 40.9941 65.1464 44.9372 63.488C48.8803 61.8296 52.4631 59.3989 55.481 56.3345C58.4989 53.2702 60.8928 49.6323 62.5261 45.6286C64.1594 41.6248 65 37.3336 65 33C65 28.6664 64.1594 24.3752 62.5261 20.3714C60.8928 16.3677 58.4989 12.7298 55.481 9.66548C52.4631 6.60114 48.8803 4.17038 44.9372 2.51198C40.9941 0.85357 36.768 -6.4576e-08 32.5 0C23.8805 1.30417e-07 15.614 3.47678 9.51903 9.66548C3.4241 15.8542 0 24.2479 0 33C0 41.7521 3.4241 50.1458 9.51903 56.3345C15.614 62.5232 23.8805 66 32.5 66ZM28.1053 18.2967L48.4864 29.7953C49.0491 30.113 49.5179 30.5776 49.8443 31.141C50.1707 31.7045 50.3428 32.3463 50.3428 33C50.3428 33.6537 50.1707 34.2955 49.8443 34.859C49.5179 35.4224 49.0491 35.887 48.4864 36.2047L28.1053 47.7033C27.4453 48.0758 26.701 48.2667 25.9461 48.2572C25.1911 48.2476 24.4517 48.038 23.8011 47.6489C23.1505 47.2599 22.6113 46.705 22.2369 46.0393C21.8625 45.3735 21.666 44.62 21.6667 43.8533V22.1467C21.666 21.38 21.8625 20.6265 22.2369 19.9607C22.6113 19.295 23.1505 18.7401 23.8011 18.3511C24.4517 17.962 25.1911 17.7524 25.9461 17.7428C26.701 17.7333 27.4453 17.9242 28.1053 18.2967Z" fill="white"/>
</svg>
